<?xml version="1.0" standalone="no"?>
<!DOCTYPE svg PUBLIC "-//W3C//DTD SVG 20010904//EN"
 "http://www.w3.org/TR/2001/REC-SVG-20010904/DTD/svg10.dtd">
<svg version="1.0" xmlns="http://www.w3.org/2000/svg"
 width="778.000000pt" height="778.000000pt" viewBox="0 0 778.000000 778.000000"
 preserveAspectRatio="xMidYMid meet">
<metadata>
Created by potrace 1.11, written by Peter Selinger 2001-2013
</metadata>
<g transform="translate(0.000000,778.000000) scale(0.100000,-0.100000)"
fill="#000000" stroke="none">
<path d="M3362 7770 c-36 -15 -68 -43 -129 -112 -31 -35 -92 -103 -137 -152
-45 -49 -90 -100 -101 -112 -11 -12 -50 -55 -87 -95 -36 -41 -76 -85 -88 -99
-12 -14 -38 -43 -59 -65 -68 -74 -119 -140 -126 -163 -7 -24 -8 -104 -2 -132
5 -20 16 -78 22 -115 3 -16 14 -84 26 -150 33 -194 29 -215 -44 -250 -246
-116 -517 -350 -702 -605 -65 -88 -135 -197 -135 -208 0 -6 -3 -12 -7 -14 -5
-1 -16 -19 -27 -38 -47 -87 -95 -181 -97 -188 -2 -9 -13 -38 -32 -83 -29 -69
-85 -290 -92 -364 0 -5 -4 -35 -8 -65 -8 -54 -18 -166 -17 -185 4 -127 6 -700
3 -719 -6 -29 -31 -37 -136 -42 -177 -8 -219 -45 -256 -224 -25 -123 -22 -348
6 -460 3 -14 7 -32 9 -40 9 -46 28 -110 45 -147 10 -24 19 -46 19 -49 0 -13
83 -169 91 -172 5 -2 9 -9 9 -15 0 -7 13 -26 28 -44 15 -17 36 -44 47 -59 30
-41 104 -110 157 -147 64 -44 71 -60 83 -192 7 -72 9 -88 19 -165 3 -25 8 -67
12 -95 3 -27 8 -57 9 -65 2 -8 10 -55 19 -105 9 -49 28 -133 42 -185 23 -90
32 -117 50 -165 4 -11 8 -24 10 -30 21 -81 134 -297 222 -425 212 -307 423
-524 665 -684 93 -61 257 -151 257 -140 0 3 6 1 14 -5 18 -15 172 -73 261 -97
180 -50 284 -71 455 -91 81 -9 433 -9 520 0 69 8 88 10 220 33 123 22 360 91
500 146 76 30 261 118 270 129 3 3 28 19 55 34 44 26 129 85 206 145 43 33
183 174 225 226 21 27 42 51 45 54 13 12 120 180 152 240 35 64 106 228 112
259 2 9 11 38 20 65 9 27 19 61 21 74 3 14 12 52 20 86 8 34 17 72 20 86 24
124 32 168 40 220 3 19 7 46 10 60 3 14 7 39 9 55 3 17 7 41 10 55 3 14 7 41
10 60 3 19 7 46 10 60 6 30 14 89 20 150 2 25 4 45 5 45 1 0 3 13 5 30 2 16
10 41 17 55 14 28 87 100 102 100 27 0 195 203 247 300 26 47 78 165 85 190 2
8 12 47 23 87 27 100 36 186 36 353 -1 234 -38 329 -153 397 -47 28 -156 40
-179 21 -7 -6 -13 -8 -13 -4 0 3 -11 1 -24 -4 -51 -19 -63 11 -71 175 -8 176
-15 272 -20 307 -2 18 -7 58 -10 88 -3 30 -7 69 -9 85 -2 17 -7 53 -10 80 -3
28 -15 102 -27 165 -11 63 -22 126 -24 140 -5 32 -7 38 -45 200 -17 74 -33
143 -35 153 -5 21 -14 49 -55 171 -37 108 -98 240 -139 302 -17 25 -31 47 -31
50 0 5 -40 64 -50 74 -3 3 -23 27 -45 55 -64 79 -163 176 -250 242 -88 67
-243 163 -262 163 -7 0 -13 5 -13 10 0 6 -6 10 -12 10 -7 0 -40 13 -73 28 -60
29 -261 101 -301 108 -40 7 -93 34 -106 53 -12 16 -14 97 -12 440 2 467 2 466
-63 511 -27 19 -534 174 -668 205 -11 3 -51 14 -90 25 -38 12 -77 23 -85 25
-8 2 -78 22 -155 45 -148 43 -244 57 -283 40z m1488 -1694 c9 -2 58 -23 110
-46 190 -86 379 -218 483 -339 98 -115 107 -126 107 -138 0 -7 3 -13 8 -13 4
0 12 -10 18 -23 6 -12 25 -49 43 -81 59 -110 122 -292 146 -425 6 -30 8 -41
28 -136 16 -70 27 -132 32 -170 3 -23 13 -81 19 -110 5 -27 15 -100 21 -160 3
-27 8 -61 10 -75 19 -116 31 -296 40 -560 3 -106 7 -196 9 -198 2 -2 0 -17 -4
-33 -5 -18 -5 -29 1 -29 6 0 8 -4 4 -10 -3 -5 -8 -98 -10 -207 -3 -109 -8
-234 -11 -278 -3 -44 -7 -102 -8 -130 -4 -63 -16 -190 -20 -230 -2 -16 -7 -61
-10 -100 -4 -38 -9 -81 -11 -95 -3 -14 -7 -51 -9 -82 -5 -49 -10 -87 -31 -218
-2 -14 -7 -45 -10 -70 -3 -25 -12 -81 -20 -125 -17 -97 -24 -140 -30 -180 -3
-16 -16 -86 -30 -155 -14 -69 -28 -136 -31 -150 -3 -14 -8 -34 -11 -45 -4 -11
-8 -24 -9 -30 -14 -69 -122 -308 -167 -369 -106 -146 -187 -235 -287 -318 -70
-57 -153 -113 -162 -110 -5 1 -8 -2 -8 -7 0 -12 -230 -124 -341 -165 -119 -44
-304 -94 -409 -111 -152 -25 -207 -29 -380 -30 -211 0 -376 18 -505 55 -111
32 -242 74 -249 82 -6 4 -16 8 -24 8 -17 0 -127 53 -207 99 -147 84 -369 277
-480 416 -22 28 -42 52 -46 55 -3 3 -18 23 -34 45 -17 22 -33 42 -37 45 -18
14 -124 186 -162 265 -38 77 -99 235 -111 285 -2 8 -11 42 -20 75 -18 67 -21
77 -29 126 -3 19 -8 45 -11 59 -9 41 -24 131 -31 185 -3 28 -8 61 -9 75 -2 14
-6 50 -9 80 -4 30 -9 73 -12 95 -3 22 -7 65 -9 95 -2 30 -7 82 -10 115 -13
143 -17 194 -20 260 -2 39 -6 122 -10 185 -25 479 -39 1546 -22 1690 8 63 23
154 30 175 2 6 7 28 12 50 4 22 14 52 22 67 7 15 13 30 13 33 1 45 160 356
219 427 6 7 32 40 58 73 106 134 221 246 427 412 40 32 84 53 99 47 9 -3 19
-20 23 -37 4 -18 9 -39 11 -47 5 -21 8 -40 28 -170 33 -222 56 -237 360 -245
99 -3 245 -7 325 -10 80 -2 224 -7 320 -10 96 -3 234 -7 305 -10 454 -18 475
-17 523 28 50 46 53 72 56 395 1 166 3 185 19 197 16 11 26 11 65 -1 26 -8 54
-16 62 -18z m-3355 -2640 c41 -17 51 -36 55 -101 6 -89 4 -289 -4 -319 l-7
-29 -13 24 c-40 79 -70 178 -81 269 -13 102 -13 134 -4 152 12 22 11 22 54 4z
m4854 0 c15 -17 6 -154 -14 -244 -18 -75 -70 -202 -84 -202 -12 0 -19 186 -10
243 4 20 2 40 -2 43 -5 3 -6 11 -2 17 4 6 8 29 9 52 1 22 3 43 3 46 1 4 10 18
22 33 22 28 60 34 78 12z"/>
<path d="M3508 5108 c-40 -14 -69 -81 -69 -160 0 -34 2 -73 5 -85 13 -58 90
-208 123 -241 67 -67 207 8 188 101 -4 18 -22 64 -40 102 -40 87 -43 96 -49
171 -7 82 -12 91 -59 108 -47 16 -60 17 -99 4z"/>
<path d="M4056 5105 c-44 -23 -53 -41 -46 -92 6 -40 2 -55 -33 -126 -74 -150
-83 -194 -45 -242 48 -61 128 -63 178 -5 30 35 82 135 99 189 16 49 25 154 17
196 -10 52 -56 95 -103 95 -21 0 -51 -7 -67 -15z"/>
<path d="M5197 4168 c-38 -4 -101 -15 -140 -24 -40 -8 -85 -18 -102 -20 -135
-23 -324 -79 -425 -127 -51 -24 -182 -97 -190 -106 -3 -3 -24 -19 -48 -35 -51
-35 -69 -83 -50 -137 30 -88 128 -97 231 -20 68 50 184 111 232 121 6 1 15 5
20 10 10 7 63 26 101 35 10 3 46 12 79 20 33 8 76 18 95 21 19 3 42 7 50 9 8
2 31 7 50 10 19 3 46 7 60 10 14 3 41 7 60 10 93 14 132 28 161 59 32 35 36
58 15 108 -24 57 -73 71 -199 56z"/>
<path d="M2402 4098 c-96 -21 -107 -156 -16 -194 32 -14 64 -17 285 -29 54 -3
107 -8 120 -10 13 -3 41 -7 64 -11 22 -3 60 -10 85 -15 25 -6 52 -11 60 -13
71 -12 231 -84 306 -138 93 -67 98 -69 138 -65 55 6 89 36 100 86 13 59 -8 98
-83 155 -125 97 -293 167 -476 200 -16 3 -41 8 -55 11 -123 28 -440 42 -528
23z"/>
<path d="M4807 3553 c-2 -1 -30 -5 -127 -19 -44 -5 -54 -8 -155 -34 -44 -11
-89 -22 -100 -25 -11 -3 -54 -16 -95 -31 -88 -31 -113 -57 -116 -124 -3 -69 7
-79 216 -187 238 -124 374 -195 417 -219 77 -42 156 -35 184 17 35 66 30 111
-16 151 -24 21 -137 84 -303 170 -73 38 -72 40 76 61 159 24 256 10 455 -62
51 -19 61 -20 90 -7 61 25 93 110 62 164 -34 56 -174 112 -348 138 -35 5 -236
11 -240 7z"/>
<path d="M2855 3519 c-61 -7 -131 -15 -217 -24 -166 -17 -257 -48 -275 -94
-23 -63 5 -134 61 -149 40 -12 105 -8 241 13 11 1 45 6 75 10 30 3 68 8 85 11
16 3 55 7 86 9 45 3 59 0 63 -12 4 -9 5 -16 4 -17 -2 -1 -12 -7 -23 -14 -11
-7 -32 -18 -47 -25 -16 -6 -28 -15 -28 -19 0 -4 -5 -8 -12 -8 -6 0 -26 -11
-44 -25 -18 -14 -35 -25 -38 -25 -10 0 -91 -58 -109 -78 -42 -47 -36 -112 16
-161 33 -30 82 -34 132 -9 43 22 157 89 165 98 3 3 57 37 120 75 63 37 147 89
185 114 39 25 82 52 97 59 64 33 109 101 103 156 -4 30 -37 73 -58 73 -6 0
-28 7 -47 15 -19 9 -48 20 -65 26 -35 11 -383 12 -470 1z"/>
<path d="M3599 2172 c-24 -22 -31 -37 -35 -80 -5 -49 -4 -54 29 -86 28 -27 52
-38 126 -56 133 -33 259 -44 331 -29 19 4 51 10 70 14 19 3 40 7 45 9 132 36
167 58 179 113 15 68 -35 143 -95 143 -16 0 -61 -9 -101 -20 -40 -11 -106 -22
-146 -26 -73 -5 -210 10 -245 28 -11 5 -43 11 -73 13 -48 3 -59 0 -85 -23z"/>
<path d="M3887 1554 c-1 -1 -51 -4 -112 -8 -60 -3 -121 -8 -135 -11 -13 -2
-40 -7 -60 -10 -20 -3 -47 -8 -60 -10 -14 -3 -36 -7 -50 -10 -14 -3 -34 -7
-45 -10 -11 -2 -49 -12 -83 -20 -97 -24 -141 -64 -137 -125 4 -63 48 -111 103
-115 15 -1 56 6 92 16 69 18 113 26 220 43 19 3 46 8 60 11 113 23 467 23 590
0 14 -2 41 -7 60 -9 19 -3 44 -7 55 -9 58 -13 132 -21 171 -18 54 3 100 85 82
145 -19 62 -89 88 -328 121 -87 12 -413 26 -423 19z"/>
</g>
</svg>
